<svg xmlns="http://www.w3.org/2000/svg" xmlns:xlink="http://www.w3.org/1999/xlink" xmlns:lucid="lucid" width="1940" height="1159.3"><g transform="translate(1880 -81.76665757924263)" lucid:page-tab-id="0_0"><path d="M-1860 107.77c0-3.32 2.7-6 6-6H34c3.3 0 6 2.68 6 6v1107.3c0 3.3-2.7 6-6 6h-1888c-3.3 0-6-2.7-6-6z" stroke="#000" stroke-opacity="0" stroke-width="3" fill-opacity="0"/><path d="M-480 297.46c0-3.3 2.7-6 6-6h228c3.3 0 6 2.7 6 6v48c0 3.32-2.7 6-6 6h-228c-3.3 0-6-2.68-6-6z" fill="none"/><use xlink:href="#a" transform="matrix(1,0,0,1,-480,291.46165124571706) translate(107.03703703703704 38.888888888888886)"/><path d="M-1235.4 782.73c0-3.3 2.7-6 6-6h388c3.3 0 6 2.7 6 6v128c0 3.32-2.7 6-6 6h-388c-3.3 0-6-2.68-6-6z" stroke="#5e5e5e" stroke-width="3" fill="#ffbbb1"/><use xlink:href="#b" transform="matrix(1,0,0,1,-1230.3993667812947,781.733342) translate(96.92592592592595 28.444444444444436)"/><use xlink:href="#c" transform="matrix(1,0,0,1,-1230.3993667812947,781.733342) translate(200.33333333333331 28.444444444444436)"/><use xlink:href="#d" transform="matrix(1,0,0,1,-1230.3993667812947,781.733342) translate(195 71.11111111111109)"/><use xlink:href="#e" transform="matrix(1,0,0,1,-1230.3993667812947,781.733342) translate(195 113.77777777777774)"/><path d="M-1136.38 836.73h207.26v69.98h-207.26z" fill="#fff" fill-opacity="0"/><path d="M-1120.1 857.36h2.45c4.14 0 3.8-5.06 6.63-9.27 2.04-3.1 4.87-5.93 9.86-5.93 3.3 0 5.2 1.58 5.2 3.88 0 1.84-1.4 2.63-2.7 2.63-1.84 0-2.3-.72-2.3-1.64 0-.92.6-1.9.6-2.43 0-.32-.2-.52-1-.52-3.28 0-5.85 3.55-7.23 8.68l-1.23 4.6h5.25l-.8 2.5h-4.98l-5.2 20.1c-.45 1.78-.98 4.27-1.96 6.7-2.17 5.46-5.72 11.7-11.5 11.7-3.16 0-4.73-1.57-4.73-3.55 0-1.56.92-3.2 2.82-3.2 1.78 0 2.43 1.18 2.43 2.16 0 1.25-1.05 1.32-1.05 2.1 0 .4.4.6 1 .6 4.26 0 6.23-10.4 7.22-14.13l5.7-22.48h-5.05M-1077.98 876.05l-4.23 16.03s-.06.1-.06.5c0 .52.28.8.66.8.46 0 1.16-.1 2.97-2.5l.56.54c-1.44 2.2-3.95 4.98-6.18 4.98-1.54 0-1.95-1.07-1.95-2.56 0-.6.27-1.58.5-2.32h-.18c-3.34 4.27-6.22 4.88-8.04 4.88-2.92 0-4.13-2.56-4.13-5.53 0-6.14 6.13-15.43 12.82-15.43 2 0 2.97 1.12 3.07 2.14h.04l.42-1.53h3.72m-4.88 4.04c0-1.92-.56-3.3-2.32-3.3-3.16 0-5.95 4.03-7.53 7.93-.85 2.1-1.3 4.14-1.3 5.77 0 2.46 1.43 3.06 2.68 3.06 3.2 0 6.46-4.4 7.76-8.83.38-1.2.7-3.06.7-4.64M-1063.44 875.58l-.46 1.77h-3.25l-3.63 14.86c-.05.15-.1.4-.1.53 0 .27.15.55.75.55 0 0 1.07-.1 2.8-2.4l.6.5c-1.12 1.44-3.44 4.97-6.2 4.97-1.43 0-1.8-1.16-1.8-2.42 0-.6.1-1.2.23-1.72l3.77-14.85h-3.58l.22-1.35c3.5-.65 6.32-2.37 8.23-6.4h.6l-1.44 5.98h3.26M-1048.85 875.58l-.46 1.77h-3.27l-3.62 14.86c-.04.15-.08.4-.08.53 0 .27.14.55.74.55 0 0 1.07-.1 2.8-2.4l.6.5c-1.12 1.44-3.45 4.97-6.2 4.97-1.43 0-1.8-1.16-1.8-2.42 0-.6.1-1.2.23-1.72l3.76-14.85h-3.58l.23-1.35c3.5-.65 6.33-2.37 8.24-6.4h.6l-1.44 5.98h3.25M-1025.52 876.05l-4.23 16.03s-.05.1-.05.5c0 .52.28.8.65.8.47 0 1.16-.1 2.97-2.5l.56.54c-1.44 2.2-3.95 4.98-6.18 4.98-1.53 0-1.95-1.07-1.95-2.56 0-.6.28-1.58.5-2.32h-.17c-3.35 4.27-6.23 4.88-8.04 4.88-2.93 0-4.14-2.56-4.14-5.53 0-6.14 6.14-15.43 12.83-15.43 2 0 2.97 1.12 3.06 2.14h.04l.42-1.53h3.72m-4.88 4.04c0-1.92-.56-3.3-2.33-3.3-3.16 0-5.94 4.03-7.52 7.93-.84 2.1-1.3 4.14-1.3 5.77 0 2.46 1.44 3.06 2.7 3.06 3.2 0 6.45-4.4 7.75-8.83.37-1.2.7-3.06.7-4.64M-1007.22 890.77l.56.6c-2.37 2.8-5.25 5.07-9.2 5.07-4.5 0-6.37-3.62-6.37-7.2 0-6.5 5.63-13.8 12.22-13.8 2.32 0 4.5 1.26 4.5 3.53 0 1.77-.74 3.26-2.5 3.26-1.22 0-1.77-.98-1.77-1.77 0-1.12 1.34-1.67 1.34-2.7 0-.55-.46-.97-1.58-.97-5.54 0-8.18 8.3-8.18 12.02 0 4.04 2.27 5.07 4.36 5.07 2.84 0 4.97-1.55 6.6-3.13M-980.32 876.05l-.18.55c-3.12.33-4.42 1.16-6.18 2.7l-4.93 4.27 2.97 7.06c.7 1.63 1.25 2.75 2.46 2.75 1.4 0 2.4-2 3.44-3.4l.7.52c-.56.97-2.75 5.94-5.9 5.94-2.14 0-3.12-2.46-3.63-3.67l-2.93-6.83-2.6 2.28-2.08 7.7h-3.53l6.86-27.35c.1-.28.14-.6.14-.93 0-.52-.46-1.03-1.48-1.03-.42 0-.9 0-1.26.1l-.14-.64 7.34-1.17-5.25 21.18 7.77-6.92c.5-.47.98-1.07.98-1.67 0-.57-.74-.9-1.2-.9h-.57l.2-.55h9M-953.03 896.65l-.8 1.06c-10.37-5.9-16.03-17.02-16.03-28.2 0-12.14 5.72-21.6 16.24-27.85l.6 1.05c-9.15 7.82-11.18 13.93-11.18 26.62 0 12.22 1.97 19.65 11.17 27.33M-949.16 842.7l.8-1.05c10.05 6.04 16.03 17.02 16.03 28.2 0 12.15-5.78 21.48-16.23 27.86l-.6-1.05c9.34-7.68 11.18-13.86 11.18-26.6 0-12.3-1.65-19.86-11.18-27.35"/><path d="M-1475.7 271.66c0-3.3 2.67-6 6-6h228c3.3 0 6 2.7 6 6v48c0 3.3-2.7 6-6 6h-228c-3.33 0-6-2.7-6-6z" stroke="#000" stroke-opacity="0" stroke-width="3" fill="#fff" fill-opacity="0"/><use xlink:href="#f" transform="matrix(1,0,0,1,-1470.7149835791945,270.6608070050279) translate(78.45679012345681 31.569444444444436)"/><path d="M-590.06 261c0-3.3 2.7-6 6-6h170.35c3.3 0 6 2.7 6 6v108c0 3.3-2.7 6-6 6h-170.36c-3.3 0-6-2.7-6-6z" stroke="#5e5e5e" stroke-width="3" fill="#fff"/><path d="M-577.55 272.83h154.26v84.35h-154.25z" fill="#fff" fill-opacity="0"/><path d="M-559.8 308.84l1.83 15.44c4-5.45 6.3-9.4 7.76-12.1 1.3-2.42 1.83-3.73 1.83-4.92 0-1.38-3.42-2.03-3.42-4.53 0-1.45 1.2-2.63 3.1-2.63 2.1 0 3.75 1.5 3.75 4.07 0 5.13-10.65 20.9-13.4 24.4-4.8 6.03-9.08 12.47-13.55 12.47-2.43 0-3.68-2.04-3.68-3.6 0-1.98 1.78-2.7 2.63-2.7 2.83 0 2.7 2.03 3.75 2.03 1.1 0 4.86-4.07 6.57-6.7l-2.5-20.64c-.33-2.96-.92-6.9-4.6-6.9-.72 0-1.77.2-2.37.26l-.13-1.06 9.86-1.64c1.5 2.17 1.97 3.88 2.56 8.74M-547.52 287.02l-8.67 6.97-1.18-.54c2.1-1.77 3.22-3.22 3.22-3.68 0-.8-1.05-.98-3.22-.98h-18.8v-3.55h18.8c1.84 0 3.22-.13 3.22-1 0-.58-1.38-1.76-3.28-3.67l1.18-.52M-531.8 323.12l-.47 1.77h-3.25l-3.63 14.86c-.04.14-.1.37-.1.5 0 .3.15.56.75.56 0 0 1.07-.1 2.8-2.4l.6.5c-1.12 1.44-3.44 4.97-6.18 4.97-1.44 0-1.82-1.17-1.82-2.42 0-.6.1-1.2.24-1.72l3.76-14.87h-3.58l.23-1.36c3.5-.65 6.32-2.37 8.23-6.4h.6l-1.44 5.98h3.25M-508.48 323.6l-4.23 16.02s-.06.1-.06.5c0 .52.28.8.65.8.46 0 1.16-.1 2.97-2.5l.55.55c-1.44 2.18-3.94 4.97-6.17 4.97-1.54 0-1.96-1.07-1.96-2.56 0-.6.27-1.58.5-2.32h-.18c-3.35 4.27-6.23 4.88-8.04 4.88-2.93 0-4.13-2.56-4.13-5.53 0-6.12 6.13-15.42 12.82-15.42 2 0 2.97 1.12 3.07 2.14h.04l.42-1.53h3.72m-4.88 4.03c0-1.9-.56-3.3-2.32-3.3-3.16 0-5.95 4.04-7.53 7.95-.85 2.1-1.3 4.13-1.3 5.76 0 2.46 1.43 3.06 2.68 3.06 3.2 0 6.46-4.4 7.76-8.82.37-1.2.7-3.07.7-4.65M-498.9 331.07l.22.04c.42-.82.98-1.75 1.5-2.6 1.57-2.5 3.8-5.52 6.35-5.52 1.35 0 2.05.98 2.05 2.23 0 1.78-1.12 3.82-3.02 3.82-1.8 0-1.35-1.76-2.2-1.76-2.82 0-6.86 11.9-7.1 12.68l-.97 3.53h-3.58l4.28-16.9c.14-.52.18-.85.18-1.08 0-.6-.5-.9-1.52-.9-.33 0-.98.1-1.26.15l-.1-.7 7.3-1.07M-465.23 324.28l-.6 2.1h-3.76c.6.7.8 1.3.8 2.32 0 3.48-2.47 6.36-6.55 6.87-2.75.38-4.1 1.54-4.1 2.7 0 2.93 10.83 1.07 10.83 6.88 0 3.3-3.06 7-10 7-6.2 0-8.54-2.64-8.54-5.33 0-2.7 2.56-4.1 5.44-5.02-.8-.5-1.12-1.4-1.12-2.18 0-1.77 1.72-4.05 3.95-4.05v-.18c-3.1-.7-4.35-2.9-4.35-5.08 0-3.67 3.16-7.34 8.08-7.34 1.95 0 3.4.6 4.1 1.3h5.84m-7.24 2.98c0-1.72-.47-2.88-2.5-2.88-2.52 0-4.57 3.3-4.57 6.46 0 2.13.56 3.76 2.6 3.76 3.3 0 4.47-4.74 4.47-7.34m.6 19.42c0-3.62-6.13-3.4-8.92-4.4-.36.22-.83.45-1.2.73-1.2.9-2.23 2.1-2.23 3.35 0 2.2 2.05 4.5 6.46 4.5 4.23 0 5.9-2.13 5.9-4.17M-448.3 338.27l.64.6c-3.26 4-6.42 5.1-9.3 5.1-4.55 0-6.36-3.9-6.36-7.23 0-1.07.05-1.72.28-2.8 1.16-5.15 6.27-10.96 12.17-10.96 1.95 0 4.74.65 4.74 3.53 0 5.92-7.76 8.2-13.3 8.47v1.3c0 2.98 2.43 4.97 5.26 4.97 1.95 0 4.18-.83 5.86-2.97m-11.12-4.6h.42c4.83 0 9.2-3.2 9.2-7.3 0-1.16-.88-2-2.05-2-3.43 0-6.22 5.35-7.57 9.3M-431.36 323.12l-.46 1.77h-3.25l-3.63 14.86c-.04.14-.1.37-.1.5 0 .3.15.56.75.56 0 0 1.07-.1 2.8-2.4l.6.5c-1.12 1.44-3.44 4.97-6.18 4.97-1.44 0-1.82-1.17-1.82-2.42 0-.6.1-1.2.24-1.72l3.75-14.87h-3.58l.23-1.36c3.5-.65 6.32-2.37 8.23-6.4h.6l-1.44 5.98h3.24"/><path d="M-589.5 792.73c0-3.3 2.68-6 6-6h170.34c3.3 0 6 2.7 6 6v108c0 3.32-2.7 6-6 6H-583.5c-3.32 0-6-2.68-6-6z" stroke="#5e5e5e" stroke-width="3" fill="#fff"/><path d="M-577.24 818.57h159.56v56.32h-159.56z" fill="#fff" fill-opacity="0"/><path d="M-559.5 834.56l1.85 15.45c4-5.45 6.3-9.4 7.75-12.1 1.32-2.42 1.84-3.73 1.84-4.9 0-1.4-3.4-2.05-3.4-4.55 0-1.44 1.17-2.63 3.07-2.63 2.12 0 3.76 1.5 3.76 4.08 0 5.12-10.65 20.9-13.4 24.38-4.8 6.04-9.07 12.48-13.54 12.48-2.43 0-3.68-2.03-3.68-3.6 0-1.98 1.77-2.7 2.63-2.7 2.82 0 2.7 2.03 3.74 2.03 1.13 0 4.87-4.08 6.58-6.7l-2.5-20.65c-.32-2.95-.9-6.9-4.6-6.9-.72 0-1.77.2-2.36.27l-.13-1.05 9.85-1.65c1.5 2.17 1.97 3.88 2.56 8.74M-522.7 844.7l-4.24 16.04s-.04.1-.04.5c0 .52.27.8.65.8.46 0 1.16-.1 2.97-2.5l.56.55c-1.44 2.17-3.95 4.96-6.18 4.96-1.53 0-1.95-1.07-1.95-2.56 0-.6.28-1.58.5-2.32h-.18c-3.35 4.28-6.23 4.88-8.05 4.88-2.92 0-4.13-2.56-4.13-5.53 0-6.13 6.13-15.42 12.82-15.42 2 0 2.98 1.12 3.07 2.14h.06l.4-1.53h3.73m-4.9 4.05c0-1.9-.55-3.3-2.3-3.3-3.17 0-5.96 4.05-7.54 7.95-.83 2.1-1.3 4.13-1.3 5.76 0 2.46 1.44 3.07 2.7 3.07 3.2 0 6.45-4.42 7.76-8.83.37-1.2.7-3.07.7-4.65M-508.17 844.24l-.46 1.77h-3.25l-3.63 14.88c-.05.14-.1.37-.1.5 0 .3.14.57.74.57 0 0 1.07-.1 2.8-2.42l.6.5c-1.12 1.45-3.44 4.98-6.18 4.98-1.45 0-1.82-1.15-1.82-2.4 0-.6.1-1.2.24-1.72l3.76-14.87h-3.58l.23-1.34c3.48-.65 6.3-2.37 8.22-6.4h.6l-1.44 5.98h3.25M-493.58 844.24l-.46 1.77h-3.25l-3.62 14.88c-.05.14-.1.37-.1.5 0 .3.15.57.75.57 0 0 1.07-.1 2.8-2.42l.6.5c-1.12 1.45-3.44 4.98-6.2 4.98-1.43 0-1.8-1.15-1.8-2.4 0-.6.1-1.2.23-1.72l3.77-14.87h-3.58l.23-1.34c3.5-.65 6.32-2.37 8.23-6.4h.6l-1.43 5.98h3.25M-470.25 844.7l-4.23 16.04s-.05.1-.05.5c0 .52.28.8.65.8.47 0 1.16-.1 2.98-2.5l.55.55c-1.44 2.17-3.95 4.96-6.18 4.96-1.53 0-1.95-1.07-1.95-2.56 0-.6.28-1.58.5-2.32h-.17c-3.35 4.28-6.23 4.88-8.04 4.88-2.92 0-4.13-2.56-4.13-5.53 0-6.13 6.14-15.42 12.83-15.42 2 0 2.97 1.12 3.06 2.14h.05l.43-1.53h3.72m-4.88 4.05c0-1.9-.56-3.3-2.33-3.3-3.15 0-5.94 4.05-7.52 7.95-.84 2.1-1.3 4.13-1.3 5.76 0 2.46 1.44 3.07 2.7 3.07 3.2 0 6.45-4.42 7.75-8.83.37-1.2.7-3.07.7-4.65M-451.95 859.44l.56.6c-2.36 2.8-5.24 5.07-9.2 5.07-4.5 0-6.35-3.62-6.35-7.2 0-6.5 5.62-13.8 12.2-13.8 2.34 0 4.52 1.26 4.52 3.54 0 1.76-.74 3.25-2.5 3.25-1.22 0-1.77-1-1.77-1.78 0-1.1 1.34-1.67 1.34-2.7 0-.55-.46-.97-1.58-.97-5.52 0-8.17 8.32-8.17 12.04 0 4.03 2.26 5.05 4.35 5.05 2.84 0 4.98-1.53 6.6-3.1M-425.05 844.7l-.18.57c-3.1.32-4.42 1.16-6.18 2.7l-4.94 4.27 2.98 7.06c.7 1.62 1.25 2.74 2.46 2.74 1.4 0 2.42-2 3.44-3.4l.7.52c-.56.97-2.75 5.95-5.9 5.95-2.14 0-3.12-2.46-3.63-3.66l-2.92-6.83-2.6 2.28-2.1 7.72h-3.52l6.88-27.37c.1-.28.13-.6.13-.93 0-.5-.46-1.02-1.48-1.02-.43 0-.9 0-1.27.1l-.14-.66 7.34-1.16-5.25 21.2 7.74-6.94c.52-.46.98-1.07.98-1.67 0-.56-.74-.88-1.2-.88h-.57l.2-.56h9"/><path d="M-832.9 846.73h223.4" stroke="#5e5e5e" stroke-width="2" fill="none"/><path d="M-832.87 847.73h-1.03v-2h1.03z" fill="#5e5e5e"/><path d="M-594.24 846.73l-14.26 4.64v-9.27z" stroke="#5e5e5e" stroke-width="2" fill="#5e5e5e"/><path d="M-1626.47 739.72c0-3.32 2.7-6 6-6H-1326c3.3 0 6 2.68 6 6v126c0 3.3-2.7 6-6 6h-294.47c-3.3 0-6-2.7-6-6z" stroke="#000" stroke-opacity="0" stroke-width="3" fill="#fff" fill-opacity="0"/><use xlink:href="#g" transform="matrix(1,0,0,1,-1621.4679734471456,738.7161580442605) translate(39.21604938271608 48.444444444444436)"/><use xlink:href="#h" transform="matrix(1,0,0,1,-1621.4679734471456,738.7161580442605) translate(107.16666666666667 48.444444444444436)"/><use xlink:href="#i" transform="matrix(1,0,0,1,-1621.4679734471456,738.7161580442605) translate(206.52469135802468 48.444444444444436)"/><use xlink:href="#j" transform="matrix(1,0,0,1,-1621.4679734471456,738.7161580442605) translate(18.672839506172892 91.11111111111109)"/><use xlink:href="#k" transform="matrix(1,0,0,1,-1621.4679734471456,738.7161580442605) translate(107.56172839506175 91.11111111111109)"/><use xlink:href="#l" transform="matrix(1,0,0,1,-1621.4679734471456,738.7161580442605) translate(205.24074074074073 91.11111111111109)"/><path d="M-313 745.06h215.37v65.3H-313z" fill="#fff" fill-opacity="0"/><path d="M-298.18 772.6l2.2-3.35c1.25-1.94 2.95-4.08 5.38-4.08 1.56 0 2.38.58 2.38 1.6 0 .93-.63 2.04-1.9 2.04-1.06 0-1.3-.42-2.13-.42-1.46 0-2 .77-2.67 1.84l-2.67 4.13c1.46 3.02 2.58 9.57 4.77 9.57.78 0 1.94-.68 2.96-2.77l.68.5c-.57.72-2.76 5.38-5.58 5.38-2 0-2.9-2-3.54-3.74l-1.95-5.5-3.06 4.76c-1.55 2.38-2.96 4.47-5.68 4.47-1.76 0-2.54-1.2-2.54-2.28 0-.78.64-1.8 1.85-1.8 1.27 0 1.08.97 2.3.97.58 0 1.84-.48 3.4-2.86l3.15-4.9-1.6-4.48c-.83-2.33-2.1-4.32-4.76-4.32-.64 0-1.37.1-1.86.3l-.14-.9 6.4-1.6c2.15 1.18 3.07 3.17 3.65 4.77M-242.4 787.9h-14.14c-7.77 0-13.3-6.36-13.3-13.55 0-7.2 5.43-13.55 13.15-13.55h14.3v3.2h-14.1c-5 0-9.17 4.13-10 8.75h24.1v3.2h-24.15c.83 4.62 5 8.75 10 8.75h14.15v3.2M-216.56 754.87h13.7c9.14 0 14.04 5 14.04 13.36 0 10.25-7.92 18.37-20.45 18.37h-14.87l.2-.78h.87c3.6 0 4.7-1.36 5.1-3l5.93-24.16c.1-.4.2-.82.2-1.16 0-1.07-.88-1.8-3.75-1.8h-1.2m10.5 1.16l-5.93 24.5c-.25.9-.25 1.16-.25 1.3 0 2 2.92 2.1 4.62 2.1 9.33 0 13.16-8.95 13.16-15.8 0-5.6-1.6-12.24-8.74-12.24-.97 0-2.1.05-2.87.14M-177.88 754.45l-.35 1.3h-2.4l-2.68 11c-.04.1-.08.27-.08.38 0 .2.1.4.55.4 0 0 .8-.06 2.06-1.78l.45.38c-.83 1.06-2.54 3.67-4.57 3.67-1.05 0-1.33-.85-1.33-1.78 0-.45.07-.9.17-1.27l2.78-11h-2.64l.17-1c2.58-.47 4.67-1.74 6.08-4.73h.45l-1.07 4.43h2.42M-170.84 760.32l.17.04c.3-.62.72-1.3 1.1-1.92 1.17-1.86 2.82-4.1 4.7-4.1 1 0 1.52.73 1.52 1.66 0 1.3-.83 2.8-2.24 2.8-1.33 0-.98-1.3-1.6-1.3-2.1 0-5.08 8.8-5.26 9.38l-.72 2.62h-2.64l3.16-12.5c.1-.4.14-.63.14-.8 0-.44-.38-.65-1.14-.65-.24 0-.72.07-.93.1l-.05-.5 5.4-.8M-146.6 754.8l-3.12 11.84s-.03.07-.03.38c0 .38.2.6.48.6.34 0 .86-.08 2.2-1.87l.4.4c-1.06 1.63-2.9 3.7-4.56 3.7-1.13 0-1.44-.8-1.44-1.9 0-.45.2-1.17.38-1.72h-.13c-2.47 3.16-4.6 3.6-5.94 3.6-2.17 0-3.06-1.88-3.06-4.08 0-4.53 4.53-11.4 9.48-11.4 1.48 0 2.2.82 2.27 1.58h.03l.3-1.14h2.76m-3.6 2.98c0-1.4-.4-2.44-1.72-2.44-2.33 0-4.4 3-5.56 5.88-.62 1.54-.96 3.05-.96 4.26 0 1.82 1.06 2.26 2 2.26 2.36 0 4.76-3.26 5.73-6.52.26-.9.5-2.27.5-3.44M-136.73 750.05c0 .9-.76 1.58-1.65 1.58-1 0-1.65-.68-1.65-1.58 0-.85.65-1.7 1.65-1.7.9 0 1.65.85 1.65 1.7m-1.03 4.3l-3.16 12.5c-.04.2-.04.34-.04.48 0 .24.2.34.45.34.74 0 .95-.4 2.2-1.75l.43.35c-1.2 1.54-2.92 3.6-4.6 3.6-.96 0-1.37-.65-1.37-1.58 0-.42 0-1.07 2.7-11.62.04-.07.08-.3.08-.4 0-.6-.28-.76-1.07-.76-.3 0-.72.06-.96.13l-.1-.55M-118.8 766.2l-.18.2c-.96 1.17-2.6 3.37-4.4 3.37-1.1 0-1.4-.8-1.4-1.58 0-.46.14-1 .24-1.38l1.96-7.6c.07-.27.24-.96.24-1.44 0-.65-.2-1.3-.83-1.3-1.3 0-3.47 2.95-4.53 4.57-1.24 1.85-2.13 3.46-2.34 4.2l-1.13 4.25h-2.65l3.27-12.85c0-.62-.1-1.1-1.03-1.1-.35 0-.72.07-.96.1l-.07-.5 5.45-.8-1.75 6.5h.1c.17 0 1.85-2.4 1.92-2.52 1.38-1.72 3.44-3.98 5.5-3.98 1.5 0 1.92 1 1.92 2.13 0 .86-.2 1.7-.38 2.4l-2.02 7.94c-.04.06-.04.17-.04.34.04.2.14.48.52.48.82 0 1.65-1.24 2.13-1.82M-177.88 783.1l-.35 1.32h-2.4l-2.68 11c-.04.1-.08.27-.08.37 0 .2.1.4.55.4 0 0 .8-.07 2.06-1.8l.45.4c-.83 1.06-2.54 3.67-4.57 3.67-1.05 0-1.33-.86-1.33-1.8 0-.44.07-.88.17-1.26l2.78-10.98h-2.64l.17-1c2.58-.48 4.67-1.75 6.08-4.74h.45l-1.07 4.43h2.42M-160.64 783.46l-3.13 11.85s-.03.08-.03.4c0 .36.2.57.48.57.34 0 .86-.07 2.2-1.86l.4.43c-1.05 1.6-2.9 3.67-4.56 3.67-1.13 0-1.44-.8-1.44-1.9 0-.43.2-1.15.38-1.7h-.14c-2.47 3.16-4.6 3.6-5.94 3.6-2.17 0-3.06-1.9-3.06-4.1 0-4.52 4.54-11.4 9.48-11.4 1.48 0 2.2.84 2.27 1.6h.03l.3-1.14h2.76m-3.6 3c0-1.42-.42-2.45-1.72-2.45-2.34 0-4.4 3-5.57 5.88-.62 1.55-.96 3.06-.96 4.26 0 1.82 1.07 2.27 2 2.27 2.37 0 4.78-3.26 5.74-6.52.27-.9.5-2.27.5-3.43M-153.56 789l.17.02c.32-.62.73-1.3 1.1-1.92 1.17-1.86 2.82-4.1 4.7-4.1 1 0 1.52.73 1.52 1.66 0 1.3-.82 2.82-2.23 2.82-1.35 0-1-1.3-1.62-1.3-2.1 0-5.1 8.78-5.26 9.37l-.72 2.6h-2.65l3.16-12.5c.12-.37.15-.6.15-.78 0-.45-.38-.66-1.13-.66-.24 0-.72.08-.93.12l-.08-.52 5.4-.8M-128.66 783.97l-.45 1.55h-2.8c.45.5.6.96.6 1.72 0 2.57-1.83 4.7-4.85 5.08-2.03.27-3.02 1.13-3.02 2 0 2.16 8 .78 8 5.07 0 2.43-2.27 5.18-7.38 5.18-4.6 0-6.32-1.96-6.32-3.95 0-2 1.88-3.02 4-3.7-.57-.4-.8-1.04-.8-1.62 0-1.3 1.26-2.98 2.9-2.98v-.14c-2.3-.5-3.22-2.13-3.22-3.74 0-2.72 2.35-5.43 6-5.43 1.43 0 2.5.46 3 .97h4.34m-5.36 2.2c0-1.27-.34-2.13-1.86-2.13-1.85 0-3.36 2.44-3.36 4.78 0 1.58.4 2.78 1.92 2.78 2.44 0 3.3-3.5 3.3-5.43m.45 14.36c0-2.68-4.54-2.5-6.6-3.26-.27.17-.62.34-.9.54-.9.67-1.64 1.56-1.64 2.5 0 1.6 1.5 3.32 4.76 3.32 3.13 0 4.37-1.58 4.37-3.1M-116.16 794.3l.48.46c-2.4 2.95-4.74 3.78-6.87 3.78-3.37 0-4.7-2.9-4.7-5.36 0-.8.03-1.27.2-2.06.86-3.82 4.64-8.1 9-8.1 1.44 0 3.5.47 3.5 2.6 0 4.36-5.73 6.05-9.82 6.25v.96c0 2.2 1.8 3.68 3.88 3.68 1.45 0 3.1-.6 4.34-2.2m-8.2-3.4h.3c3.57 0 6.8-2.36 6.8-5.38 0-.86-.65-1.48-1.5-1.48-2.55 0-4.6 3.95-5.6 6.87M-103.62 783.1l-.35 1.32h-2.4l-2.68 11c-.03.1-.07.27-.07.37 0 .2.1.4.55.4 0 0 .8-.07 2.06-1.8l.44.4c-.83 1.06-2.54 3.67-4.57 3.67-1.07 0-1.34-.86-1.34-1.8 0-.44.07-.88.17-1.26l2.78-10.98h-2.64l.17-1c2.6-.48 4.68-1.75 6.1-4.74h.44l-1.07 4.43h2.4"/><path d="M-307.75 875.13h211.08v64.02h-211.08z" fill="#fff" fill-opacity="0"/><path d="M-293.23 902.13l2.15-3.28c1.23-1.9 2.9-4 5.28-4 1.52 0 2.33.57 2.33 1.57 0 .9-.6 2-1.85 2-1.05 0-1.3-.43-2.1-.43-1.43 0-1.95.75-2.62 1.8l-2.62 4.05c1.43 2.95 2.53 9.38 4.67 9.38.77 0 1.92-.67 2.92-2.72l.66.5c-.57.7-2.7 5.27-5.47 5.27-1.95 0-2.85-1.95-3.47-3.66l-1.9-5.37-3 4.66c-1.53 2.33-2.9 4.37-5.58 4.37-1.7 0-2.47-1.2-2.47-2.23 0-.77.62-1.77 1.8-1.77 1.25 0 1.06.96 2.25.96.57 0 1.8-.48 3.33-2.8l3.1-4.82-1.58-4.37c-.8-2.3-2.04-4.24-4.66-4.24-.62 0-1.34.08-1.8.27l-.16-.85 6.3-1.57c2.08 1.14 3 3.1 3.56 4.66M-238.56 917.13h-13.86c-1.57 0-3.05-.3-4.38-.76l-3.48 6.95h-2.95l4.05-8.1c-3.86-2.33-6.3-6.66-6.3-11.37 0-7.05 5.35-13.3 12.92-13.3h5.66l3.1-6.23h2.95l-3.1 6.24h5.4v3.14h-6.96l-4.3 8.57h11.24v3.15h-12.76l-4.05 8.1c.95.28 1.9.47 2.95.47h13.86v3.13m-9.9-23.43h-3.9c-4.92 0-9 4.05-9.82 8.57h9.43m-1.53 3.15h-7.95c.48 2.7 2.2 5.28 4.53 6.85M-213.23 884.75h13.43c8.95 0 13.76 4.9 13.76 13.1 0 10.04-7.76 18-20.05 18h-14.56l.2-.77h.85c3.5 0 4.6-1.33 5-2.95l5.8-23.67c.1-.38.2-.8.2-1.14 0-1.05-.87-1.76-3.68-1.76h-1.2m10.3 1.14l-5.8 24c-.25.9-.25 1.14-.25 1.3 0 1.94 2.86 2.04 4.52 2.04 9.14 0 12.9-8.77 12.9-15.48 0-5.48-1.57-12-8.57-12-.96 0-2.05.05-2.8.14M-175.32 884.34l-.34 1.28h-2.36l-2.62 10.77c-.04.1-.07.26-.07.36 0 .2.1.4.53.4 0 0 .77-.06 2.02-1.75l.44.38c-.82 1.05-2.5 3.6-4.5 3.6-1.04 0-1.3-.84-1.3-1.74 0-.44.06-.88.16-1.25l2.73-10.78h-2.6l.17-.98c2.52-.47 4.58-1.72 5.96-4.64h.43l-1.04 4.34h2.36M-168.42 890.1l.17.03c.3-.6.7-1.28 1.07-1.9 1.15-1.8 2.76-4 4.62-4 .97 0 1.48.7 1.48 1.62 0 1.28-.8 2.76-2.2 2.76-1.3 0-.97-1.27-1.57-1.27-2.06 0-5 8.62-5.15 9.2l-.7 2.55h-2.6l3.1-12.25c.1-.37.13-.6.13-.78 0-.43-.37-.63-1.1-.63-.25 0-.72.06-.92.1l-.06-.5 5.3-.78M-144.65 884.67l-3.07 11.62s-.03.06-.03.36c0 .37.2.57.47.57.34 0 .84-.07 2.15-1.82l.4.42c-1.04 1.58-2.85 3.6-4.47 3.6-1.1 0-1.4-.77-1.4-1.85 0-.44.2-1.15.36-1.68h-.14c-2.42 3.08-4.5 3.52-5.82 3.52-2.12 0-3-1.85-3-4 0-4.45 4.45-11.18 9.3-11.18 1.44 0 2.15.8 2.22 1.55h.03l.3-1.13h2.7m-3.54 2.93c0-1.38-.4-2.4-1.67-2.4-2.3 0-4.3 2.94-5.46 5.77-.6 1.52-.94 3-.94 4.17 0 1.8 1.04 2.23 1.95 2.23 2.33 0 4.68-3.2 5.63-6.4.27-.88.5-2.22.5-3.37M-135 880.03c0 .87-.73 1.55-1.6 1.55-1 0-1.62-.68-1.62-1.55 0-.84.63-1.68 1.6-1.68.9 0 1.63.84 1.63 1.68m-1 4.2l-3.1 12.26c-.03.2-.03.33-.03.46 0 .24.2.34.43.34.74 0 .95-.4 2.16-1.72l.44.34c-1.18 1.5-2.87 3.53-4.52 3.53-.94 0-1.34-.64-1.34-1.54 0-.4 0-1.04 2.66-11.37.03-.07.07-.3.07-.4 0-.58-.27-.75-1.05-.75-.3 0-.7.07-.94.14l-.1-.54M-117.42 895.85l-.17.2c-.93 1.15-2.55 3.3-4.3 3.3-1.07 0-1.38-.77-1.38-1.55 0-.43.14-.97.24-1.34l1.92-7.44c.06-.27.23-.95.23-1.42 0-.64-.2-1.28-.8-1.28-1.27 0-3.4 2.9-4.44 4.48-1.2 1.82-2.1 3.4-2.3 4.1l-1.1 4.18h-2.6l3.2-12.6c0-.6-.1-1.06-1-1.06-.34 0-.7.06-.95.1l-.05-.5 5.35-.78-1.72 6.36h.1c.17 0 1.82-2.36 1.9-2.46 1.34-1.68 3.36-3.9 5.38-3.9 1.48 0 1.88.97 1.88 2.08 0 .85-.2 1.7-.37 2.36l-2 7.78c-.02.06-.02.17-.02.33.03.2.14.47.5.47.8 0 1.62-1.22 2.1-1.8M-175.32 912.43l-.34 1.28h-2.36l-2.62 10.78c-.04.1-.07.27-.07.37 0 .2.1.4.53.4 0 0 .77-.06 2.02-1.74l.44.38c-.82 1.04-2.5 3.6-4.5 3.6-1.04 0-1.3-.84-1.3-1.75 0-.44.06-.88.16-1.25l2.73-10.77h-2.6l.17-.96c2.52-.48 4.58-1.72 5.96-4.65h.43l-1.04 4.33h2.36M-158.42 912.77l-3.07 11.6s-.02.08-.02.38c0 .37.2.58.47.58.34 0 .84-.07 2.15-1.82l.4.4c-1.03 1.6-2.85 3.6-4.47 3.6-1.1 0-1.4-.76-1.4-1.84 0-.44.2-1.14.36-1.68h-.15c-2.42 3.1-4.5 3.53-5.82 3.53-2.12 0-3-1.84-3-4 0-4.44 4.45-11.17 9.3-11.17 1.44 0 2.15.8 2.22 1.55h.03l.3-1.1h2.7m-3.54 2.92c0-1.38-.4-2.4-1.68-2.4-2.3 0-4.3 2.94-5.46 5.76-.6 1.52-.94 3-.94 4.18 0 1.78 1.05 2.22 1.95 2.22 2.34 0 4.7-3.2 5.64-6.4.27-.87.5-2.22.5-3.36M-151.5 918.2l.18.02c.3-.6.7-1.28 1.08-1.88 1.14-1.82 2.76-4 4.6-4 1 0 1.5.7 1.5 1.6 0 1.3-.82 2.77-2.2 2.77-1.3 0-.97-1.27-1.58-1.27-2.05 0-4.98 8.62-5.15 9.2l-.7 2.55h-2.6l3.1-12.26c.1-.37.13-.6.13-.77 0-.44-.37-.64-1.1-.64-.25 0-.72.08-.92.1l-.07-.5 5.3-.77M-127.08 913.27l-.44 1.52h-2.73c.44.5.58.93.58 1.67 0 2.53-1.8 4.6-4.75 4.98-2 .27-2.96 1.12-2.96 1.96 0 2.13 7.84.78 7.84 5 0 2.38-2.22 5.07-7.24 5.07-4.5 0-6.2-1.92-6.2-3.87 0-1.95 1.86-2.96 3.95-3.63-.58-.37-.8-1-.8-1.6 0-1.27 1.23-2.92 2.85-2.92v-.13c-2.25-.5-3.16-2.1-3.16-3.67 0-2.66 2.3-5.32 5.85-5.32 1.43 0 2.47.44 2.98.94h4.24m-5.25 2.16c0-1.25-.34-2.1-1.82-2.1-1.82 0-3.3 2.4-3.3 4.7 0 1.54.4 2.72 1.88 2.72 2.4 0 3.24-3.44 3.24-5.32m.43 14.07c0-2.63-4.44-2.46-6.46-3.2-.27.17-.6.34-.87.54-.88.64-1.62 1.52-1.62 2.42 0 1.6 1.48 3.27 4.68 3.27 3.06 0 4.27-1.55 4.27-3.03M-114.83 923.4l.47.44c-2.35 2.9-4.64 3.7-6.73 3.7-3.3 0-4.6-2.82-4.6-5.24 0-.78.03-1.25.2-2.02.84-3.74 4.55-7.95 8.82-7.95 1.4 0 3.43.47 3.43 2.56 0 4.27-5.62 5.9-9.62 6.12v.94c0 2.15 1.75 3.6 3.8 3.6 1.4 0 3.03-.6 4.24-2.15m-8.04-3.33h.3c3.5 0 6.67-2.32 6.67-5.28 0-.85-.64-1.46-1.5-1.46-2.48 0-4.5 3.87-5.47 6.73M-102.54 912.43l-.34 1.28h-2.35l-2.63 10.78c-.03.1-.07.27-.07.37 0 .2.1.4.54.4 0 0 .8-.06 2.03-1.74l.44.38c-.8 1.04-2.5 3.6-4.48 3.6-1.05 0-1.32-.84-1.32-1.75 0-.44.07-.88.17-1.25l2.72-10.77h-2.6l.18-.96c2.53-.48 4.58-1.72 5.96-4.65h.45l-1.05 4.33h2.36"/><path d="M-479.68 822.73c0-3.3 2.68-6 6-6h228c3.3 0 6 2.7 6 6v48c0 3.32-2.7 6-6 6h-228c-3.32 0-6-2.68-6-6z" fill="none"/><use xlink:href="#a" transform="matrix(1,0,0,1,-479.6843832021002,816.733342) translate(107.03703703703704 38.888888888888886)"/><path d="M-360 813.57c0-3.3 2.7-6 6-6h274.08c3.32 0 6 2.7 6 6v62.46c0 3.3-2.68 6-6 6H-354c-3.3 0-6-2.7-6-6z" stroke="#000" stroke-opacity="0" stroke-width="3" fill="#fff" fill-opacity="0"/><use xlink:href="#m" transform="matrix(1,0,0,1,-355,812.5688658596739) translate(122.74691358024693 38.60069444444443)"/><path d="M-1235.7 248.55c0-3.3 2.67-6 6-6h388c3.3 0 6 2.7 6 6v128c0 3.3-2.7 6-6 6h-388c-3.33 0-6-2.7-6-6z" stroke="#5e5e5e" stroke-width="3" fill="#c7e8ac"/><use xlink:href="#n" transform="matrix(1,0,0,1,-1230.7149835791945,247.54889499875605) translate(99.54320987654324 28.444444444444436)"/><use xlink:href="#c" transform="matrix(1,0,0,1,-1230.7149835791945,247.54889499875605) translate(197.71604938271605 28.444444444444436)"/><use xlink:href="#d" transform="matrix(1,0,0,1,-1230.7149835791945,247.54889499875605) translate(195 71.11111111111109)"/><use xlink:href="#e" transform="matrix(1,0,0,1,-1230.7149835791945,247.54889499875605) translate(195 113.77777777777774)"/><path d="M-1136.7 302.55h201.97v74.08h-201.97z" fill="#fff" fill-opacity="0"/><path d="M-1120.4 323.17h2.43c4.14 0 3.8-5.06 6.64-9.27 2.03-3.08 4.86-5.9 9.86-5.9 3.28 0 5.2 1.57 5.2 3.87 0 1.84-1.4 2.63-2.7 2.63-1.85 0-2.3-.73-2.3-1.65 0-.92.58-1.9.58-2.43 0-.33-.18-.52-.97-.52-3.3 0-5.85 3.54-7.23 8.67l-1.25 4.6h5.26l-.78 2.5h-5l-5.2 20.1c-.45 1.78-.97 4.28-1.96 6.7-2.17 5.47-5.72 11.7-11.5 11.7-3.15 0-4.73-1.57-4.73-3.54 0-1.58.92-3.22 2.83-3.22 1.77 0 2.43 1.2 2.43 2.18 0 1.25-1.06 1.3-1.06 2.1 0 .4.4.6.98.6 4.27 0 6.24-10.4 7.23-14.14l5.72-22.47h-5.06M-1087.08 341.4l-.46 1.76h-3.25l-3.62 14.87c-.04.14-.1.37-.1.5 0 .3.15.57.75.57 0 0 1.07-.1 2.8-2.42l.6.5c-1.12 1.45-3.44 5-6.2 5-1.43 0-1.8-1.18-1.8-2.43 0-.6.1-1.2.23-1.72l3.77-14.87h-3.58l.23-1.35c3.5-.64 6.32-2.35 8.23-6.4h.6l-1.43 6h3.25M-1063.75 341.86l-4.23 16.03s-.05.08-.05.5c0 .5.28.8.65.8.47 0 1.16-.1 2.98-2.52l.55.56c-1.44 2.18-3.95 4.97-6.18 4.97-1.53 0-1.95-1.06-1.95-2.54 0-.6.28-1.58.5-2.33h-.17c-3.35 4.28-6.23 4.88-8.04 4.88-2.92 0-4.13-2.54-4.13-5.52 0-6.13 6.14-15.42 12.83-15.42 2 0 2.97 1.1 3.06 2.13h.05l.43-1.54h3.72m-4.88 4.04c0-1.9-.56-3.3-2.33-3.3-3.15 0-5.94 4.05-7.52 7.95-.84 2.1-1.3 4.13-1.3 5.76 0 2.47 1.44 3.08 2.7 3.08 3.2 0 6.45-4.42 7.75-8.83.37-1.2.7-3.07.7-4.65M-1054.18 349.34l.23.05c.42-.85.98-1.78 1.5-2.6 1.57-2.52 3.8-5.54 6.35-5.54 1.35 0 2.05.97 2.05 2.23 0 1.75-1.12 3.8-3.02 3.8-1.82 0-1.35-1.77-2.2-1.77-2.82 0-6.86 11.9-7.1 12.7l-.97 3.52h-3.58l4.28-16.92c.13-.5.18-.83.18-1.06 0-.6-.5-.9-1.53-.9-.32 0-.97.1-1.25.15l-.1-.7 7.3-1.06M-1020.5 342.56l-.6 2.1h-3.76c.6.7.8 1.3.8 2.3 0 3.5-2.48 6.38-6.57 6.9-2.74.36-4.08 1.52-4.08 2.68 0 2.93 10.8 1.07 10.8 6.88 0 3.3-3.06 7.02-9.98 7.02-6.22 0-8.55-2.65-8.55-5.35 0-2.7 2.56-4.1 5.44-5.03-.78-.5-1.1-1.4-1.1-2.18 0-1.78 1.7-4.05 3.94-4.05v-.2c-3.1-.68-4.36-2.87-4.36-5.05 0-3.67 3.15-7.34 8.08-7.34 1.95 0 3.4.6 4.1 1.3h5.84m-7.25 2.97c0-1.72-.46-2.88-2.5-2.88-2.5 0-4.56 3.3-4.56 6.46 0 2.15.55 3.77 2.6 3.77 3.3 0 4.45-4.74 4.45-7.34m.6 19.42c0-3.62-6.12-3.4-8.9-4.4-.38.22-.85.45-1.22.73-1.2.9-2.23 2.1-2.23 3.35 0 2.18 2.04 4.5 6.46 4.5 4.23 0 5.9-2.13 5.9-4.18M-1003.6 356.54l.67.6c-3.26 4-6.42 5.12-9.3 5.12-4.55 0-6.36-3.9-6.36-7.25 0-1.06.05-1.7.3-2.78 1.15-5.16 6.26-10.96 12.16-10.96 1.95 0 4.74.65 4.74 3.53 0 5.9-7.76 8.17-13.3 8.44v1.3c0 2.98 2.43 4.98 5.26 4.98 1.95 0 4.18-.84 5.85-2.98m-11.1-4.6h.43c4.83 0 9.2-3.2 9.2-7.3 0-1.15-.88-2-2.05-2-3.43 0-6.22 5.35-7.57 9.3M-986.63 341.4l-.46 1.76h-3.24l-3.63 14.87c-.04.14-.1.37-.1.5 0 .3.15.57.75.57 0 0 1.07-.1 2.8-2.42l.6.5c-1.12 1.45-3.44 5-6.18 5-1.45 0-1.82-1.18-1.82-2.43 0-.6.1-1.2.24-1.72l3.76-14.87h-3.58l.23-1.35c3.5-.64 6.32-2.35 8.23-6.4h.6l-1.44 6h3.25M-958.6 362.47l-.8 1.05c-10.38-5.9-16.03-17.02-16.03-28.2 0-12.15 5.72-21.6 16.23-27.86l.6 1.06c-9.14 7.82-11.18 13.93-11.18 26.6 0 12.23 1.97 19.66 11.17 27.35M-954.8 308.52l.8-1.06c10.05 6.05 16.03 17.03 16.03 28.2 0 12.15-5.78 21.5-16.23 27.86l-.6-1.05c9.34-7.7 11.18-13.87 11.18-26.62 0-12.28-1.65-19.84-11.17-27.33"/><path d="M-835.7 271c0-3.3 2.67-6 6-6h228c3.3 0 6 2.7 6 6v48c0 3.3-2.7 6-6 6h-228c-3.33 0-6-2.7-6-6z" stroke="#000" stroke-opacity="0" stroke-width="3" fill="#fff" fill-opacity="0"/><use xlink:href="#o" transform="matrix(1,0,0,1,-830.7149835791945,270.00124381461745) translate(69.56790123456793 31.569444444444436)"/><path d="M-1482.3 318h226.58" stroke="#5e5e5e" stroke-width="2" fill="none"/><path d="M-1482.27 319h-1.02v-2h1.03z" fill="#5e5e5e"/><path d="M-1240.45 318l-14.27 4.64v-9.28z" stroke="#5e5e5e" stroke-width="2" fill="#5e5e5e"/><path d="M-833.2 320.2h223.14" stroke="#5e5e5e" stroke-width="2" fill="none"/><path d="M-833.2 321.2h-1v-2h1z" fill="#5e5e5e"/><path d="M-594.8 320.2l-14.26 4.62v-9.27z" stroke="#5e5e5e" stroke-width="2" fill="#5e5e5e"/><path d="M-311.28 200.75h128.96v232.6h-128.96z" fill="#fff" fill-opacity="0"/><path d="M-293.94 204.1v1.3c-7.46 8.55-9.8 20.9-9.8 31.9v10.37h-5.38v-6.9c0-13.12 3.86-28.7 15.18-36.66"/><path d="M-303.74 387.87h-5.38V245.7h5.38v142.17"/><path d="M-293.94 428.15v1.3c-11.32-7.98-15.18-23.54-15.18-36.67v-6.9h5.38v10.36c0 11.02 2.34 23.37 9.8 31.9M-264.46 224.44c0 7.45-2.73 14.9-9.8 14.9-7.4 0-9.8-8.05-9.8-15.16 0-7.68 3-14.74 9.97-14.74 5.7 0 9.64 6.1 9.64 15m-4.16.2c0-9-1.9-14.08-5.73-14.08-3.6 0-5.55 5.12-5.55 13.92s1.9 13.74 5.64 13.74c3.68 0 5.64-4.98 5.64-13.57M-255.58 236.88c0 1.26-1.12 2.34-2.42 2.34-1.35 0-2.4-1.04-2.4-2.38 0-1.35 1.1-2.43 2.44-2.43 1.26 0 2.38 1.18 2.38 2.48M-231.9 224.44c0 7.45-2.74 14.9-9.8 14.9-7.42 0-9.8-8.05-9.8-15.16 0-7.68 3-14.74 9.97-14.74 5.68 0 9.62 6.1 9.62 15m-4.17.2c0-9-1.9-14.08-5.72-14.08-3.6 0-5.54 5.12-5.54 13.92s1.9 13.74 5.64 13.74c3.68 0 5.63-4.98 5.63-13.57M-210.32 232.8l-2.34 5.94h-16.95v-.52l7.7-8.2c4.08-4.28 5.64-7.58 5.64-11.26 0-3.95-2.34-6.1-6.02-6.1-3.12 0-4.64 1.37-6.37 5.62l-.9-.22c.9-5.07 3.67-8.62 9-8.62 4.9 0 8.02 3.34 8.02 7.63 0 3.42-1.7 6.67-5.55 10.75l-7.15 7.63h10.15c1.82 0 2.73-.48 4.16-2.9M-264.46 285.13c0 7.46-2.73 14.9-9.8 14.9-7.4 0-9.8-8.05-9.8-15.16 0-7.67 3-14.74 9.97-14.74 5.7 0 9.64 6.1 9.64 15m-4.16.22c0-9.02-1.9-14.1-5.73-14.1-3.6 0-5.55 5.12-5.55 13.92s1.9 13.75 5.64 13.75c3.68 0 5.64-5 5.64-13.57M-255.58 297.57c0 1.26-1.12 2.34-2.42 2.34-1.35 0-2.4-1.03-2.4-2.37s1.1-2.43 2.44-2.43c1.26 0 2.38 1.17 2.38 2.47M-249.98 300.4l-.13-.88c6.58-1.17 11.43-5.72 13.17-12.83-1.87 1.8-3.95 2.46-6.5 2.46-4.7 0-7.8-3.5-7.8-8.8 0-5.85 3.85-10.23 9-10.23 2.78 0 5.12 1.22 6.8 3.3 1.75 2.16 2.8 5.3 2.8 8.93 0 4.98-1.75 9.7-5.2 12.87-3.7 3.34-6.52 4.38-12.15 5.16m13.13-16.35v-1.7c0-7.28-1.95-11-5.72-11-1.3 0-2.43.52-3.16 1.47-.87 1.17-1.52 3.73-1.52 6.07 0 5.15 2.08 8.4 5.33 8.4 1.9 0 5.07-.95 5.07-3.25M-210.32 293.5l-2.34 5.94h-16.95v-.52l7.7-8.2c4.08-4.3 5.64-7.58 5.64-11.27 0-3.94-2.34-6.1-6.02-6.1-3.12 0-4.64 1.38-6.37 5.63l-.9-.22c.9-5.07 3.67-8.63 9-8.63 4.9 0 8.02 3.34 8.02 7.63 0 3.43-1.7 6.68-5.55 10.75l-7.15 7.64h10.15c1.82 0 2.73-.47 4.16-2.9M-230.34 358.27c0 1.25-1.13 2.34-2.43 2.34-1.35 0-2.4-1.03-2.4-2.38 0-1.34 1.1-2.42 2.44-2.42 1.26 0 2.4 1.17 2.4 2.47m-14.45 0c0 1.25-1.13 2.34-2.43 2.34-1.35 0-2.4-1.03-2.4-2.38 0-1.34 1.1-2.42 2.43-2.42 1.26 0 2.4 1.17 2.4 2.47m-14.45 0c0 1.25-1.12 2.34-2.43 2.34-1.34 0-2.38-1.03-2.38-2.38 0-1.34 1.08-2.42 2.43-2.42 1.26 0 2.38 1.17 2.38 2.47M-264.46 406.52c0 7.45-2.73 14.9-9.8 14.9-7.4 0-9.8-8.05-9.8-15.16 0-7.68 3-14.74 9.97-14.74 5.7 0 9.64 6.1 9.64 15m-4.16.2c0-9-1.9-14.07-5.73-14.07-3.6 0-5.55 5.1-5.55 13.9s1.9 13.75 5.64 13.75c3.68 0 5.64-4.98 5.64-13.57M-255.58 418.96c0 1.26-1.12 2.34-2.42 2.34-1.35 0-2.4-1.04-2.4-2.38 0-1.35 1.1-2.43 2.44-2.43 1.26 0 2.38 1.16 2.38 2.46M-231.9 406.52c0 7.45-2.74 14.9-9.8 14.9-7.42 0-9.8-8.05-9.8-15.16 0-7.68 3-14.74 9.97-14.74 5.68 0 9.62 6.1 9.62 15m-4.17.2c0-9-1.9-14.07-5.72-14.07-3.6 0-5.54 5.1-5.54 13.9s1.9 13.75 5.64 13.75c3.68 0 5.63-4.98 5.63-13.57M-213.78 420.82h-11.97v-.65c3.2-.17 4.12-1.08 4.12-3.46v-19.46c0-1.47-.4-2.12-1.3-2.12-.43 0-1.17.2-1.95.52l-1.17.43v-.6l7.76-3.95.4.13v25.88c0 1.86.86 2.64 4.12 2.64v.65M-184.52 247.67h-5.38V237.3c0-11-2.34-23.35-9.8-31.9v-1.3c11.32 7.98 15.18 23.55 15.18 36.68v6.9"/><path d="M-184.52 387.87h-5.38V245.7h5.38v142.17"/><path d="M-184.52 385.88v6.9c0 13.13-3.86 28.7-15.17 36.67v-1.3c7.46-8.54 9.8-20.9 9.8-31.9v-10.37h5.38"/><path d="M-498.88 377.5V454c0 3.3-2.7 6-6 6h-1130.35c-3.32 0-6 2.7-6 6v74" stroke="#5e5e5e" stroke-width="2" fill="none"/><path d="M-497.88 377.53h-2v-1.03h2z" fill="#5e5e5e"/><path d="M-1641.23 555.26l-4.64-14.26h9.27z" stroke="#5e5e5e" stroke-width="2" fill="#5e5e5e"/><path d="M-835.4 802.76c0-3.32 2.7-6 6-6h228c3.3 0 6 2.68 6 6v48c0 3.3-2.7 6-6 6h-228c-3.3 0-6-2.7-6-6z" stroke="#000" stroke-opacity="0" stroke-width="3" fill="#fff" fill-opacity="0"/><use xlink:href="#o" transform="matrix(1,0,0,1,-830.3993667812947,801.7577198438319) translate(69.56790123456793 31.569444444444436)"/><path d="M-1640.07 224.27v7m0 6.97v7.02h.04l.02.02V256.34m0 11.05v22.08m0 11.04v11.05l.82 3.03 2.15 2.15 3.03.82h9.74m9.73 0h9.74" stroke="#5e5e5e" stroke-width="2" fill="none"/><path d="M-1639.07 224.3h-2v-1.03h2z" fill="#5e5e5e"/><path d="M-1589.53 317.57l-14.26 4.63v-9.27z" stroke="#5e5e5e" stroke-width="2" fill="#5e5e5e"/><path d="M-1700.93 224.27V540" stroke="#5e5e5e" stroke-width="2" fill="none"/><path d="M-1699.93 224.3h-2v-1.03h2z" fill="#5e5e5e"/><path d="M-1700.93 555.26l-4.64-14.26h9.27z" stroke="#5e5e5e" stroke-width="2" fill="#5e5e5e"/><path d="M-1584.8 279.6c0-3.3 2.7-6 6-6h88c3.32 0 6 2.7 6 6v64.45c0 3.3-2.68 6-6 6h-88c-3.3 0-6-2.7-6-6z" stroke="#5e5e5e" stroke-width="3" fill="#fff"/><path d="M-1552.88 288.5h36.18v44.3h-36.18z" fill="#fff" fill-opacity="0"/><path d="M-1532.84 305.75l2.96-4.54c1.7-2.62 4-5.5 7.3-5.5 2.1 0 3.22.78 3.22 2.16 0 1.25-.86 2.76-2.57 2.76-1.44 0-1.77-.6-2.9-.6-1.96 0-2.68 1.06-3.6 2.5l-3.62 5.6c1.97 4.07 3.5 12.94 6.44 12.94 1.04 0 2.62-.92 4-3.75l.92.67c-.8.98-3.74 7.3-7.56 7.3-2.7 0-3.94-2.7-4.8-5.07l-2.62-7.42-4.14 6.44c-2.1 3.22-4 6.04-7.7 6.04-2.36 0-3.4-1.64-3.4-3.1 0-1.04.85-2.42 2.5-2.42 1.7 0 1.43 1.32 3.08 1.32.8 0 2.5-.66 4.6-3.88l4.27-6.64-2.17-6.04c-1.12-3.16-2.82-5.85-6.44-5.85-.85 0-1.84.13-2.5.4l-.2-1.2 8.68-2.16c2.9 1.57 4.14 4.26 4.93 6.43"/><path d="M-1800 126c0-3.3 2.7-6 6-6h235.12c3.3 0 6 2.7 6 6v89.77c0 3.3-2.7 6-6 6H-1794c-3.3 0-6-2.7-6-6z" stroke="#5e5e5e" stroke-width="3" fill="#fff"/><path d="M-1746.47 134.72h140.06v72.33h-140.07z" fill="#fff" fill-opacity="0"/><path d="M-1726.5 197.48l-.78 1.05c-10.38-5.9-16.03-17.02-16.03-28.2 0-12.15 5.7-21.6 16.22-27.85l.6 1.05c-9.14 7.82-11.18 13.93-11.18 26.6 0 12.24 1.97 19.66 11.17 27.35M-1704.54 167.98l2.96-4.54c1.7-2.63 4-5.52 7.3-5.52 2.1 0 3.2.8 3.2 2.17 0 1.24-.84 2.75-2.55 2.75-1.45 0-1.78-.6-2.9-.6-1.96 0-2.7 1.06-3.6 2.5l-3.62 5.6c1.97 4.07 3.48 12.94 6.44 12.94 1.04 0 2.62-.93 4-3.76l.92.66c-.8.98-3.75 7.3-7.56 7.3-2.7 0-3.94-2.7-4.8-5.07l-2.63-7.42-4.14 6.45c-2.1 3.22-4.02 6.04-7.7 6.04-2.36 0-3.4-1.65-3.4-3.1 0-1.05.84-2.43 2.48-2.43 1.7 0 1.45 1.32 3.1 1.32.78 0 2.5-.67 4.6-3.9l4.27-6.63-2.17-6.04c-1.12-3.16-2.83-5.85-6.44-5.85-.86 0-1.84.13-2.5.4l-.2-1.2 8.68-2.16c2.9 1.58 4.14 4.27 4.93 6.44M-1682.92 196.17l-.66-1.25c3.62-2.43 5.46-4.86 5.46-7.03 0-.47-.4-.87-.92-.87-.53 0-1.2.27-1.9.27-2.44 0-3.82-1.12-3.82-3.36 0-2.23 1.58-3.74 3.94-3.74 2.96 0 5.26 2.3 5.26 5.72 0 3.94-2.83 8.08-7.36 10.25M-1643.23 166.73l1.84 15.44c4.02-5.45 6.32-9.4 7.77-12.1 1.3-2.42 1.84-3.74 1.84-4.92 0-1.38-3.4-2.04-3.4-4.53 0-1.45 1.17-2.63 3.08-2.63 2.1 0 3.75 1.5 3.75 4.06 0 5.13-10.65 20.9-13.4 24.38-4.8 6.05-9.08 12.5-13.55 12.5-2.43 0-3.68-2.05-3.68-3.63 0-1.96 1.78-2.68 2.63-2.68 2.83 0 2.7 2.04 3.75 2.04 1.1 0 4.86-4.08 6.57-6.7l-2.5-20.64c-.33-2.96-.92-6.9-4.6-6.9-.72 0-1.77.2-2.37.26l-.13-1.05 9.86-1.64c1.52 2.16 1.98 3.86 2.57 8.73M-1626.47 143.53l.8-1.05c10.04 6.04 16.03 17.02 16.03 28.2 0 12.15-5.8 21.48-16.24 27.85l-.6-1.05c9.34-7.7 11.18-13.86 11.18-26.6 0-12.3-1.64-19.86-11.17-27.35"/><path d="M-1800 566c0-3.3 2.7-6 6-6h328c3.3 0 6 2.7 6 6v89.77c0 3.3-2.7 6-6 6h-328c-3.3 0-6-2.7-6-6z" stroke="#5e5e5e" stroke-width="3" fill="#fff"/><path d="M-1760 568.7h258.14v84.36H-1760z" fill="#fff" fill-opacity="0"/><path d="M-1740.02 635.48l-.8 1.05c-10.37-5.92-16.03-17.02-16.03-28.2 0-12.15 5.72-21.6 16.24-27.86l.58 1.05c-9.14 7.82-11.17 13.94-11.17 26.62 0 12.22 1.98 19.65 11.18 27.34M-1720.37 604.72l1.84 15.45c4-5.46 6.3-9.4 7.75-12.1 1.32-2.43 1.84-3.74 1.84-4.92 0-1.38-3.42-2.04-3.42-4.54 0-1.44 1.2-2.62 3.1-2.62 2.1 0 3.74 1.5 3.74 4.08 0 5.12-10.65 20.9-13.4 24.38-4.8 6.04-9.08 12.48-13.54 12.48-2.44 0-3.68-2.03-3.68-3.6 0-1.98 1.77-2.7 2.62-2.7 2.83 0 2.7 2.03 3.75 2.03 1.12 0 4.86-4.07 6.57-6.7l-2.5-20.64c-.32-2.94-.92-6.9-4.6-6.9-.72 0-1.77.2-2.36.28l-.13-1.06 9.86-1.64c1.52 2.17 1.98 3.88 2.57 8.74M-1700 634.16l-.66-1.24c3.62-2.44 5.46-4.87 5.46-7.04 0-.46-.4-.85-.92-.85-.53 0-1.2.26-1.9.26-2.44 0-3.82-1.13-3.82-3.36s1.58-3.75 3.94-3.75c2.96 0 5.26 2.3 5.26 5.7 0 3.95-2.83 8.1-7.36 10.26M-1660.3 604.72l1.83 15.45c4-5.46 6.3-9.4 7.76-12.1 1.3-2.43 1.83-3.74 1.83-4.92 0-1.38-3.42-2.04-3.42-4.54 0-1.44 1.2-2.62 3.1-2.62 2.1 0 3.74 1.5 3.74 4.08 0 5.12-10.64 20.9-13.4 24.38-4.8 6.04-9.07 12.48-13.54 12.48-2.43 0-3.68-2.03-3.68-3.6 0-1.98 1.78-2.7 2.63-2.7 2.83 0 2.7 2.03 3.75 2.03 1.1 0 4.86-4.07 6.57-6.7l-2.5-20.64c-.33-2.94-.92-6.9-4.6-6.9-.72 0-1.77.2-2.37.28l-.13-1.06 9.86-1.64c1.5 2.17 1.97 3.88 2.56 8.74M-1648.02 582.9l-8.67 6.97-1.18-.53c2.1-1.77 3.22-3.22 3.22-3.68 0-.78-1.05-.98-3.22-.98h-18.8v-3.55h18.8c1.84 0 3.22-.13 3.22-1 0-.58-1.38-1.76-3.28-3.67l1.18-.52M-1632.3 619l-.47 1.77h-3.25l-3.63 14.87c-.04.14-.1.37-.1.5 0 .3.15.57.75.57 0 0 1.07-.1 2.8-2.4l.6.5c-1.12 1.44-3.44 4.97-6.18 4.97-1.44 0-1.82-1.16-1.82-2.4 0-.62.1-1.22.24-1.73l3.76-14.87h-3.58l.23-1.35c3.5-.65 6.32-2.37 8.23-6.4h.6l-1.44 5.98h3.25M-1608.98 619.47l-4.23 16.03s-.06.1-.06.5c0 .52.28.8.65.8.46 0 1.16-.1 2.97-2.5l.55.55c-1.44 2.18-3.94 4.97-6.17 4.97-1.54 0-1.96-1.07-1.96-2.56 0-.6.27-1.58.5-2.32h-.18c-3.35 4.28-6.23 4.88-8.04 4.88-2.93 0-4.13-2.56-4.13-5.53 0-6.14 6.13-15.43 12.82-15.43 2 0 2.97 1.1 3.07 2.13h.04l.42-1.53h3.72m-4.88 4.04c0-1.9-.56-3.3-2.32-3.3-3.16 0-5.95 4.06-7.53 7.96-.85 2.1-1.3 4.13-1.3 5.76 0 2.46 1.43 3.07 2.68 3.07 3.2 0 6.46-4.43 7.76-8.84.37-1.2.7-3.07.7-4.65M-1599.4 626.95l.22.05c.42-.84.98-1.77 1.5-2.6 1.57-2.5 3.8-5.53 6.35-5.53 1.35 0 2.05.97 2.05 2.23 0 1.76-1.12 3.8-3.02 3.8-1.8 0-1.35-1.76-2.2-1.76-2.82 0-6.86 11.9-7.1 12.68l-.97 3.54h-3.58l4.28-16.92c.14-.5.18-.83.18-1.07 0-.6-.5-.88-1.52-.88-.33 0-.98.08-1.26.13l-.1-.7 7.3-1.06M-1565.73 620.17l-.6 2.1h-3.76c.6.68.8 1.3.8 2.3 0 3.5-2.47 6.38-6.55 6.9-2.75.36-4.1 1.52-4.1 2.68 0 2.93 10.83 1.07 10.83 6.88 0 3.3-3.06 7-10 7-6.2 0-8.54-2.63-8.54-5.33s2.56-4.1 5.44-5.02c-.8-.5-1.12-1.4-1.12-2.18 0-1.77 1.72-4.04 3.95-4.04v-.2c-3.1-.7-4.35-2.87-4.35-5.05 0-3.66 3.16-7.33 8.08-7.33 1.95 0 3.4.6 4.1 1.3h5.84m-7.24 2.97c0-1.72-.47-2.88-2.5-2.88-2.52 0-4.57 3.3-4.57 6.46 0 2.13.56 3.76 2.6 3.76 3.3 0 4.47-4.74 4.47-7.34m.6 19.42c0-3.62-6.13-3.4-8.92-4.4-.36.22-.83.45-1.2.73-1.2.87-2.23 2.08-2.23 3.34 0 2.18 2.05 4.5 6.46 4.5 4.23 0 5.9-2.13 5.9-4.18M-1548.8 634.15l.64.6c-3.26 4-6.42 5.12-9.3 5.12-4.55 0-6.36-3.9-6.36-7.25 0-1.07.05-1.72.28-2.8 1.16-5.15 6.27-10.95 12.17-10.95 1.95 0 4.74.65 4.74 3.53 0 5.9-7.76 8.17-13.3 8.45v1.3c0 2.98 2.43 4.98 5.26 4.98 1.95 0 4.18-.84 5.86-2.98m-11.12-4.6h.42c4.83 0 9.2-3.2 9.2-7.3 0-1.15-.88-2-2.05-2-3.43 0-6.22 5.35-7.57 9.3M-1531.86 619l-.46 1.77h-3.25l-3.63 14.87c-.04.14-.1.37-.1.5 0 .3.15.57.75.57 0 0 1.07-.1 2.8-2.4l.6.5c-1.12 1.44-3.44 4.97-6.18 4.97-1.44 0-1.82-1.16-1.82-2.4 0-.62.1-1.22.24-1.73l3.75-14.87h-3.58l.23-1.35c3.5-.65 6.32-2.37 8.23-6.4h.6l-1.44 5.98h3.24M-1521.9 581.52l.78-1.05c10.06 6.05 16.04 17.02 16.04 28.2 0 12.15-5.8 21.48-16.24 27.86l-.6-1.05c9.35-7.7 11.2-13.87 11.2-26.62 0-12.3-1.66-19.84-11.2-27.34"/><path d="M-1700.4 664.27v176.46c0 3.32 2.7 6 6 6h439" stroke="#5e5e5e" stroke-width="2" fill="none"/><path d="M-1699.4 664.3h-2v-1.03h2z" fill="#5e5e5e"/><path d="M-1240.14 846.73l-14.26 4.64v-9.27z" stroke="#5e5e5e" stroke-width="2" fill="#5e5e5e"/><defs><path fill="#333" d="M18-150v-26h174v26H18zm0 90v-26h174v26H18" id="p"/><use transform="matrix(0.12345679012345674,0,0,0.12345679012345674,0,0)" xlink:href="#p" id="a"/><path fill="#333" d="M81-9v9H4v-9l26-5 81-224h33l83 224 30 5v9h-99v-9l31-5-23-68H73L49-14zm38-203L78-98h82" id="q"/><path fill="#333" d="M54-38c-1 25 24 26 44 20v12C71 10 25 9 25-35v-115H4c-2-14 14-10 21-15l18-38h11v38h38v15H54v112" id="r"/><path fill="#333" d="M32-163c41-10 102-14 102 39v112c8 3 24-2 21 12h-45l-4-17C83 13 3 13 13-46c-2-50 45-50 92-51 4-36-5-70-42-56-6 2-12 4-16 6-4 7 0 23-15 20v-36zM42-47c0 41 41 33 63 22v-59c-34 1-63-1-63 37" id="s"/><path fill="#333" d="M45-84c0 64 52 80 104 63 1 25-30 25-55 25-56 0-80-32-80-88 0-76 62-98 131-80v46h-10c-5-15-4-31-23-35-47-10-67 21-67 69" id="t"/><path fill="#333" d="M60-80l68-73c-7-3-20 0-17-12h58c3 13-13 9-20 12l-47 48 60 93c7 3 21-1 18 12h-68c-3-12 9-9 15-12L82-83 60-60v48c7 3 21-1 18 12H10v-8l21-4v-226l-24-4v-8h53v170" id="u"/><g id="b"><use transform="matrix(0.0987654320987654,0,0,0.0987654320987654,0,0)" xlink:href="#q"/><use transform="matrix(0.0987654320987654,0,0,0.0987654320987654,25.58024691358024,0)" xlink:href="#r"/><use transform="matrix(0.0987654320987654,0,0,0.0987654320987654,35.45679012345678,0)" xlink:href="#r"/><use transform="matrix(0.0987654320987654,0,0,0.0987654320987654,45.333333333333314,0)" xlink:href="#s"/><use transform="matrix(0.0987654320987654,0,0,0.0987654320987654,61.037037037037,0)" xlink:href="#t"/><use transform="matrix(0.0987654320987654,0,0,0.0987654320987654,76.7407407407407,0)" xlink:href="#u"/></g><path fill="#333" d="M152 0h-7L59-203v189l32 5v9H10v-9l31-5v-208l-31-4v-10h72l76 180 84-180h68v10l-31 4v208l31 5v9h-96v-9l32-5v-189" id="v"/><path fill="#333" d="M90-170c52 0 76 32 76 87 0 54-24 87-77 87-51 0-75-34-75-87 0-54 24-87 76-87zM89-10c39 0 46-35 46-73 0-39-7-73-46-73-39 1-44 34-44 73s6 72 44 73" id="w"/><path fill="#333" d="M13-81c0-71 46-101 114-85l-1-72-28-4v-8h57v238c8 3 24-2 21 12h-47l-2-12C80 23 13-1 13-81zm77-74c-37 1-44 33-45 74 0 38 9 66 45 66 14 0 27-3 36-7v-130c-10-1-24-3-36-3" id="x"/><path fill="#333" d="M84-170c49 0 66 33 63 87H46c-8 60 38 80 95 63v10C128-2 108 4 88 4 34 4 14-29 14-84c-1-54 22-86 70-86zm33 73c12-57-57-82-69-24-1 7-2 15-2 24h71" id="y"/><path fill="#333" d="M65-12l28 4v8H7v-8l28-4v-226l-28-4v-8h58v238" id="z"/><g id="c"><use transform="matrix(0.0987654320987654,0,0,0.0987654320987654,0,0)" xlink:href="#v"/><use transform="matrix(0.0987654320987654,0,0,0.0987654320987654,31.60493827160493,0)" xlink:href="#w"/><use transform="matrix(0.0987654320987654,0,0,0.0987654320987654,49.3827160493827,0)" xlink:href="#x"/><use transform="matrix(0.0987654320987654,0,0,0.0987654320987654,67.16049382716048,0)" xlink:href="#y"/><use transform="matrix(0.0987654320987654,0,0,0.0987654320987654,82.86419753086417,0)" xlink:href="#z"/></g><path fill="#333" d="M47-200c-23 0-25-39 0-38 13 0 18 7 20 19-1 11-8 19-20 19zM65-12l28 4v8H8v-8l28-4v-141l-24-4v-8h53v153" id="A"/><path fill="#333" d="M125-118c4-37-41-34-68-26v132l23 4v8H8C5-13 21-9 28-12v-141c-7-3-23 1-20-12h47l2 13c31-23 98-29 98 31v109c7 3 23-1 20 12h-72v-8l22-4v-106" id="B"/><path fill="#333" d="M166-85c3 67-44 102-111 85l1 64 29 4v9H6v-9l21-4v-217c-7-3-22 1-19-12h46l1 9c11-8 26-14 45-14 47 2 64 36 66 85zM56-13c53 14 83-14 78-72 7-53-33-79-78-60v132" id="C"/><path fill="#333" d="M124-13C89 8 26 15 26-45v-108c-8-3-24 2-21-12h50v118c-3 37 42 32 69 25v-131l-25-4v-8h54v153c8 3 24-2 21 12h-48" id="D"/><g id="f"><use transform="matrix(0.0987654320987654,0,0,0.0987654320987654,0,0)" xlink:href="#A"/><use transform="matrix(0.0987654320987654,0,0,0.0987654320987654,9.876543209876539,0)" xlink:href="#B"/><use transform="matrix(0.0987654320987654,0,0,0.0987654320987654,27.654320987654305,0)" xlink:href="#C"/><use transform="matrix(0.0987654320987654,0,0,0.0987654320987654,45.43209876543208,0)" xlink:href="#D"/><use transform="matrix(0.0987654320987654,0,0,0.0987654320987654,63.20987654320986,0)" xlink:href="#r"/></g><g id="g"><use transform="matrix(0.0987654320987654,0,0,0.0987654320987654,0,0)" xlink:href="#x"/><use transform="matrix(0.0987654320987654,0,0,0.0987654320987654,17.77777777777777,0)" xlink:href="#s"/><use transform="matrix(0.0987654320987654,0,0,0.0987654320987654,33.48148148148147,0)" xlink:href="#r"/><use transform="matrix(0.0987654320987654,0,0,0.0987654320987654,43.358024691358004,0)" xlink:href="#s"/></g><path fill="#333" d="M57-145c16-10 35-24 60-25v45c-19 1-8-30-40-17l-20 6v124l29 4v8H7v-8l21-4v-141c-8-3-24 2-21-12h48" id="E"/><g id="h"><use transform="matrix(0.0987654320987654,0,0,0.0987654320987654,0,0)" xlink:href="#E"/><use transform="matrix(0.0987654320987654,0,0,0.0987654320987654,11.753086419753082,0)" xlink:href="#y"/><use transform="matrix(0.0987654320987654,0,0,0.0987654320987654,27.45679012345678,0)" xlink:href="#t"/><use transform="matrix(0.0987654320987654,0,0,0.0987654320987654,43.16049382716048,0)" xlink:href="#w"/><use transform="matrix(0.0987654320987654,0,0,0.0987654320987654,60.93827160493825,0)" xlink:href="#E"/><use transform="matrix(0.0987654320987654,0,0,0.0987654320987654,72.69135802469134,0)" xlink:href="#x"/></g><g id="i"><use transform="matrix(0.0987654320987654,0,0,0.0987654320987654,0,0)" xlink:href="#s"/><use transform="matrix(0.0987654320987654,0,0,0.0987654320987654,15.703703703703699,0)" xlink:href="#B"/><use transform="matrix(0.0987654320987654,0,0,0.0987654320987654,33.48148148148147,0)" xlink:href="#x"/></g><path fill="#333" d="M141-152c28 39 5 97-54 97-9 0-20-2-27-3L49-35c29 22 130-14 124 52-4 45-38 57-88 61C21 83-8 26 45-2 33-6 22-15 21-31l28-31c-19-9-28-26-28-51-2-51 53-65 100-52l38-20 7 8zM85 64c35 0 61-11 61-42 0-35-57-17-89-21-9 8-16 19-17 34 0 25 19 29 45 29zM52-113c1 26 7 46 35 44 28-1 34-16 35-44 0-26-6-43-34-43s-36 17-36 43" id="F"/><g id="j"><use transform="matrix(0.0987654320987654,0,0,0.0987654320987654,0,0)" xlink:href="#r"/><use transform="matrix(0.0987654320987654,0,0,0.0987654320987654,9.876543209876539,0)" xlink:href="#s"/><use transform="matrix(0.0987654320987654,0,0,0.0987654320987654,25.58024691358024,0)" xlink:href="#E"/><use transform="matrix(0.0987654320987654,0,0,0.0987654320987654,36.64197530864196,0)" xlink:href="#F"/><use transform="matrix(0.0987654320987654,0,0,0.0987654320987654,54.41975308641973,0)" xlink:href="#y"/><use transform="matrix(0.0987654320987654,0,0,0.0987654320987654,70.12345679012343,0)" xlink:href="#r"/></g><path fill="#333" d="M126-118c4-37-42-32-68-25v131l24 4v8H8C5-13 21-9 28-12v-141c-7-3-23 1-20-12h48l1 13c22-15 77-30 92 2 32-22 104-36 104 29v109c8 3 24-2 21 12h-75v-8l25-4v-106c3-39-45-31-72-24 7 37 1 88 3 130l25 4v8h-78v-8l24-4v-106" id="G"/><g id="k"><use transform="matrix(0.0987654320987654,0,0,0.0987654320987654,0,0)" xlink:href="#G"/><use transform="matrix(0.0987654320987654,0,0,0.0987654320987654,27.654320987654312,0)" xlink:href="#w"/><use transform="matrix(0.0987654320987654,0,0,0.0987654320987654,45.43209876543209,0)" xlink:href="#x"/><use transform="matrix(0.0987654320987654,0,0,0.0987654320987654,63.20987654320986,0)" xlink:href="#y"/><use transform="matrix(0.0987654320987654,0,0,0.0987654320987654,78.91358024691355,0)" xlink:href="#z"/></g><g id="l"><use transform="matrix(0.0987654320987654,0,0,0.0987654320987654,0,0)" xlink:href="#A"/><use transform="matrix(0.0987654320987654,0,0,0.0987654320987654,9.876543209876539,0)" xlink:href="#B"/><use transform="matrix(0.0987654320987654,0,0,0.0987654320987654,27.654320987654305,0)" xlink:href="#C"/><use transform="matrix(0.0987654320987654,0,0,0.0987654320987654,45.43209876543208,0)" xlink:href="#D"/><use transform="matrix(0.0987654320987654,0,0,0.0987654320987654,63.20987654320986,0)" xlink:href="#r"/></g><path fill="#333" d="M100-194c62-1 85 37 85 99 1 63-27 99-86 99S16-35 15-95c0-66 28-99 85-99zM99-20c44 1 53-31 53-75 0-43-8-75-51-75s-53 32-53 75 10 74 51 75" id="H"/><g id="m"><use transform="matrix(0.09876543209876537,0,0,0.09876543209876537,0,0)" xlink:href="#H"/><use transform="matrix(0.09876543209876537,0,0,0.09876543209876537,19.753086419753075,0)" xlink:href="#E"/></g><path fill="#333" d="M55 0v-9l38-5v-207c-22 1-53 0-70 4l-5 37H7v-56h207v56h-12l-5-37-70-3v206l37 5v9H55" id="I"/><g id="n"><use transform="matrix(0.0987654320987654,0,0,0.0987654320987654,0,0)" xlink:href="#I"/><use transform="matrix(0.0987654320987654,0,0,0.0987654320987654,19.160493827160487,0)" xlink:href="#s"/><use transform="matrix(0.0987654320987654,0,0,0.0987654320987654,34.86419753086419,0)" xlink:href="#E"/><use transform="matrix(0.0987654320987654,0,0,0.0987654320987654,45.92592592592591,0)" xlink:href="#F"/><use transform="matrix(0.0987654320987654,0,0,0.0987654320987654,63.70370370370368,0)" xlink:href="#y"/><use transform="matrix(0.0987654320987654,0,0,0.0987654320987654,79.40740740740738,0)" xlink:href="#r"/></g><g id="o"><use transform="matrix(0.0987654320987654,0,0,0.0987654320987654,0,0)" xlink:href="#w"/><use transform="matrix(0.0987654320987654,0,0,0.0987654320987654,17.77777777777777,0)" xlink:href="#D"/><use transform="matrix(0.0987654320987654,0,0,0.0987654320987654,35.55555555555554,0)" xlink:href="#r"/><use transform="matrix(0.0987654320987654,0,0,0.0987654320987654,45.43209876543208,0)" xlink:href="#C"/><use transform="matrix(0.0987654320987654,0,0,0.0987654320987654,63.20987654320986,0)" xlink:href="#D"/><use transform="matrix(0.0987654320987654,0,0,0.0987654320987654,80.98765432098762,0)" xlink:href="#r"/></g></defs></g></svg>